HIERARCHY
ROOT Hips
{
	OFFSET	0.00	0.00	0.00
	CHANNELS 6 Xposition Yposition Zposition Zrotation Xrotation Yrotation
	JOINT LeftUpLeg
	{
		OFFSET	 0.126116	-0.014019	-0.065224
		CHANNELS 3 Zrotation Xrotation Yrotation
		JOINT LeftLeg
		{
			OFFSET	 0.000000	 0.000000	 0.569914
			CHANNELS 3 Zrotation Xrotation Yrotation
			JOINT LeftFoot
			{
				OFFSET	 0.000000	 0.000000	 0.544423
				CHANNELS 3 Zrotation Xrotation Yrotation
				JOINT LeftToeBase
				{
					OFFSET	 0.000000	 0.000000	 0.207117
					CHANNELS 3 Zrotation Xrotation Yrotation
					End Site
					{
						OFFSET	 0.000000	 0.000000	 0.207117
					}
				}
			}
		}
	}
	JOINT RightUpLeg
	{
		OFFSET	-0.124023	-0.008373	-0.065224
		CHANNELS 3 Zrotation Xrotation Yrotation
		JOINT RightLeg
		{
			OFFSET	 0.000000	 0.000000	 0.570047
			CHANNELS 3 Zrotation Xrotation Yrotation
			JOINT RightFoot
			{
				OFFSET	 0.000000	 0.000000	 0.544354
				CHANNELS 3 Zrotation Xrotation Yrotation
				JOINT RightToeBase
				{
					OFFSET	 0.000000	 0.000000	 0.207540
					CHANNELS 3 Zrotation Xrotation Yrotation
					End Site
					{
						OFFSET	 0.000000	 0.000000	 0.207540
					}
				}
			}
		}
	}
	JOINT Spine
	{
		OFFSET	 0.000184	-0.007763	 0.117403
		CHANNELS 3 Zrotation Xrotation Yrotation
		JOINT Spine1
		{
			OFFSET	 0.000000	 0.000000	 0.137269
			CHANNELS 3 Zrotation Xrotation Yrotation
			JOINT Spine2
			{
				OFFSET	 0.000000	 0.000000	 0.156879
				CHANNELS 3 Zrotation Xrotation Yrotation
				JOINT LeftShoulder
				{
					OFFSET	 0.080501	-0.002496	 0.160144
					CHANNELS 3 Zrotation Xrotation Yrotation
					JOINT LeftArm
					{
						OFFSET	 0.000000	 0.000000	 0.164363
						CHANNELS 3 Zrotation Xrotation Yrotation
						JOINT LeftForeArm
						{
							OFFSET	 0.000000	 0.000000	 0.364576
							CHANNELS 3 Zrotation Xrotation Yrotation
							JOINT LeftHand
							{
								OFFSET	 0.000000	 0.000000	 0.360812
								CHANNELS 3 Zrotation Xrotation Yrotation
								JOINT LeftHandIndex1
								{
									OFFSET	 0.000000	 0.000000	 0.086006
									CHANNELS 3 Zrotation Xrotation Yrotation
									JOINT LeftHandIndex2
									{
										OFFSET	 0.000000	 0.000000	 0.047236
										CHANNELS 3 Zrotation Xrotation Yrotation
										JOINT LeftHandIndex3
										{
											OFFSET	-0.004284	-0.000551	 0.038166
											CHANNELS 3 Zrotation Xrotation Yrotation
											End Site
											{
												OFFSET	-0.004284	-0.000551	 0.038166
											}
										}
									}
								}
							}
						}
					}
				}
				JOINT Neck
				{
					OFFSET	 0.000000	 0.000000	 0.176489
					CHANNELS 3 Zrotation Xrotation Yrotation
					JOINT Head
					{
						OFFSET	 0.000000	-0.001747	 0.077940
						CHANNELS 3 Zrotation Xrotation Yrotation
						End Site
						{
							OFFSET	 0.000000	-0.001747	 0.077940
						}
					}
				}
				JOINT RightShoulder
				{
					OFFSET	-0.080363	 0.000306	 0.159706
					CHANNELS 3 Zrotation Xrotation Yrotation
					JOINT RightArm
					{
						OFFSET	 0.000000	 0.000000	 0.164196
						CHANNELS 3 Zrotation Xrotation Yrotation
						JOINT RightForeArm
						{
							OFFSET	 0.000000	 0.000000	 0.365611
							CHANNELS 3 Zrotation Xrotation Yrotation
							JOINT RightHand
							{
								OFFSET	 0.000000	 0.000000	 0.360648
								CHANNELS 3 Zrotation Xrotation Yrotation
								JOINT RightHandIndex1
								{
									OFFSET	 0.000000	 0.000000	 0.069977
									CHANNELS 3 Zrotation Xrotation Yrotation
									JOINT RightHandIndex2
									{
										OFFSET	 0.000000	 0.000000	 0.052305
										CHANNELS 3 Zrotation Xrotation Yrotation
										JOINT RightHandIndex3
										{
											OFFSET	 0.009002	-0.000782	 0.042196
											CHANNELS 3 Zrotation Xrotation Yrotation
											End Site
											{
												OFFSET	 0.009002	-0.000782	 0.042196
											}
										}
									}
								}
							}
						}
					}
				}
			}
		}
	}
}
MOTION
Frames:    10
Frame Time: 0.03333334
-0.023029	 0.288831	 1.025303	 0.648523	 31.815180	-6.455713	 67.530950	-73.250230	-126.149100	 5.723901	-69.872090	 5.768036	 71.432240	 69.691310	-86.896950	-2.385832	 28.452790	-0.000001	 9.979610	-85.482170	-163.906100	-16.431170	-72.731610	-10.788430	-34.639360	 72.468060	 63.261990	 2.384659	 28.388700	-0.000001	-16.906230	 14.166360	 1.986931	-2.769511	 16.490460	 3.994934	 2.204821	 2.856910	 0.967806	-98.849160	 68.400750	 157.456700	 0.250464	-9.372699	-46.056580	 8.214334	-2.283800	-8.209765	-39.620570	-15.283290	-23.261300	-2.027600	 6.559038	 9.033609	-5.188889	 0.308190	 3.541030	-5.234859	 0.342567	 0.430617	-0.150307	 14.240660	-4.834083	 3.803110	-22.043790	 0.410543	 97.276470	 64.401060	-159.988900	-8.566125	 6.219014	 53.867050	-19.466740	-9.474795	 37.385950	 23.575290	-14.959090	 19.328550	 1.803333	 3.979147	-15.098590	 4.898592	 3.004813	-9.310344	 5.224449	 0.395017	 2.014677
-0.020848	 0.286472	 1.038419	 0.642627	 30.887750	-6.131321	 62.069630	-71.743710	-131.882900	 5.127431	-68.011430	 5.142943	 70.098790	 69.722270	-85.087170	-2.385832	 28.452790	-0.000001	-3.038441	-83.242600	-176.045100	-15.569380	-70.853870	-9.858184	-34.263530	 72.353400	 62.419450	 2.384659	 28.388700	-0.000001	-21.550720	 13.759400	 1.866925	-2.687577	 16.442620	 3.820019	 2.355963	 2.152876	 0.737252	-98.483630	 68.777030	 158.032800	 0.762263	-7.267853	-46.663970	 10.770700	-2.975583	-9.180948	-40.318980	-15.444470	-23.960330	-2.027600	 6.559038	 9.033609	-5.188889	 0.308190	 3.541030	-5.234859	 0.342567	 0.430617	-0.513024	 11.031260	-4.066460	 3.728626	-18.979540	-0.069329	 97.084670	 64.095020	-160.756100	-9.664839	 6.168292	 52.666750	-20.319720	-11.501010	 40.543300	 23.564700	-14.639820	 20.223110	 1.803333	 3.979147	-15.098590	 4.898592	 3.004813	-9.310344	 5.224449	 0.395017	 2.014677
-0.017842	 0.282733	 1.055397	 0.610883	 29.579440	-5.589272	 56.095150	-69.523820	-138.368500	 4.509886	-65.599590	 4.488289	 68.541130	 69.826840	-82.823060	-2.385833	 28.452760	 0.000004	-11.593380	-79.923500	 176.565800	-14.777060	-68.328580	-8.961505	-33.625650	 72.326600	 61.154790	 2.384659	 28.388700	-0.000001	-27.265000	 13.165230	 1.672995	-2.683325	 16.632510	 3.649686	 2.539641	 0.877280	 0.417833	-97.692010	 69.877780	 158.867100	 1.630559	-3.956925	-47.504070	 13.931560	-3.953856	-10.339590	-41.193720	-15.560940	-25.271630	-2.027600	 6.559038	 9.033609	-5.188889	 0.308190	 3.541030	-5.234859	 0.342567	 0.430617	-0.881732	 5.824070	-2.953977	 3.566175	-14.090840	-0.955485	 96.767750	 64.237410	-161.448800	-11.217900	 7.124895	 51.100890	-21.540840	-14.562520	 44.499340	 23.422060	-14.197950	 21.021520	 1.803333	 3.979147	-15.098590	 4.898592	 3.004813	-9.310344	 5.224449	 0.395017	 2.014677
-0.015404	 0.279091	 1.069967	 0.582338	 28.372010	-5.072997	 51.721410	-67.429790	-143.258600	 4.198233	-63.488000	 4.131268	 67.103320	 69.974680	-80.785990	-2.385833	 28.452760	 0.000004	-15.844860	-76.842430	 173.330800	-14.334860	-66.067380	-8.410398	-33.070650	 72.337910	 60.092040	 2.384659	 28.388700	-0.000001	-31.640540	 12.670430	 1.512611	-2.674367	 16.850980	 3.500784	 2.691962	-0.333533	 0.177357	-96.682140	 71.471300	 159.571500	 2.429363	-0.556843	-48.539720	 16.585580	-4.836590	-11.224230	-42.067620	-15.733270	-26.497590	-2.027600	 6.559038	 9.033609	-5.188889	 0.308190	 3.541030	-5.234859	 0.342567	 0.430617	-1.115746	 0.991830	-2.345917	 3.557557	-9.544080	-1.477131	 96.283700	 64.983270	-162.087800	-12.587440	 8.709546	 50.259540	-22.405980	-17.354490	 47.731980	 23.443570	-14.136970	 21.712260	 1.803333	 3.979147	-15.098590	 4.898592	 3.004813	-9.310344	 5.224449	 0.395017	 2.014677
-0.013056	 0.274041	 1.087922	 0.548186	 26.742510	-4.437965	 46.994200	-64.595260	-148.695300	 4.068864	-60.795280	 3.917134	 64.865910	 70.248590	-77.895830	-2.385833	 28.452750	 0.000004	-19.317960	-72.792670	 171.139900	-13.791460	-63.181310	-7.727195	-32.713320	 72.344330	 59.038370	 2.384659	 28.388700	-0.000001	-36.113000	 12.104580	 1.395706	-2.604271	 17.101250	 3.291326	 2.878279	-1.920900	-0.052462	-94.942670	 74.222760	 160.328600	 3.561743	 4.248298	-50.384560	 19.694920	-5.936747	-12.166450	-43.159360	-16.032650	-28.025090	-2.027600	 6.559038	 9.033609	-5.188889	 0.308190	 3.541030	-5.234859	 0.342567	 0.430617	-1.367898	-5.375244	-2.191735	 3.693974	-3.535894	-1.726985	 95.396000	 66.698480	-162.994900	-14.317390	 11.468230	 49.995200	-23.174790	-20.847910	 51.465260	 23.667680	-14.561270	 22.595320	 1.803333	 3.979147	-15.098590	 4.898592	 3.004813	-9.310344	 5.224449	 0.395017	 2.014677
-0.011640	 0.267948	 1.104442	 0.608040	 25.105410	-3.875102	 42.928200	-61.784870	-153.408800	 4.061243	-58.222830	 3.879887	 61.916920	 70.600890	-74.415370	-2.385833	 28.452750	 0.000004	-21.645970	-68.822240	 170.079700	-12.334020	-60.510950	-6.264506	-33.147430	 72.499470	 58.191800	 2.384659	 28.388700	-0.000001	-39.308740	 11.545880	 1.348205	-2.502840	 17.570330	 3.012504	 3.046320	-3.694293	-0.170558	-93.072490	 76.877390	 160.998200	 5.054866	 8.459689	-52.530310	 22.493670	-6.967067	-12.925830	-43.749150	-16.275510	-29.484120	-2.027600	 6.559038	 9.033609	-5.188889	 0.308190	 3.541030	-5.234859	 0.342567	 0.430617	-1.629667	-12.169850	-2.561323	 3.862468	 2.813182	-1.751665	 94.489890	 68.498700	-163.893600	-16.078720	 14.025530	 49.984450	-23.399900	-24.061660	 54.976580	 23.864640	-15.087120	 23.180920	 1.803333	 3.979147	-15.098590	 4.898592	 3.004813	-9.310344	 5.224449	 0.395017	 2.014677
-0.009700	 0.259028	 1.122946	 1.205270	 23.584540	-3.385972	 39.948590	-58.457460	-156.931700	 4.211094	-55.173980	 3.758449	 59.166530	 70.804670	-70.815410	-2.385833	 28.452750	 0.000004	-23.624880	-64.526210	 169.764600	-10.608090	-57.448120	-4.607819	-32.157850	 72.717760	 55.746270	 2.384659	 28.388700	-0.000001	-41.301940	 10.487450	 0.913029	-2.495816	 17.486090	 2.631041	 3.221949	-5.497966	-0.476913	-93.721630	 75.647190	 162.829200	 6.532999	 9.895736	-53.003870	 25.311560	-8.012103	-13.590600	-42.979900	-16.007870	-30.924430	-2.027600	 6.559038	 9.033609	-5.188889	 0.308190	 3.541030	-5.234859	 0.342567	 0.430617	-1.668428	-14.282620	-1.341275	 4.042212	 4.719965	-2.520278	 93.911360	 69.396300	-164.827000	-17.915260	 16.526680	 48.847170	-23.280670	-27.340930	 58.553130	 23.685840	-15.277900	 23.485390	 1.803333	 3.979147	-15.098590	 4.898592	 3.004813	-9.310344	 5.224449	 0.395017	 2.014677
-0.008938	 0.251979	 1.135496	 1.612279	 22.531560	-3.020834	 37.846760	-56.142380	-159.428100	 4.141421	-53.092590	 3.647350	 56.840140	 71.005080	-67.887540	-2.385833	 28.452750	 0.000004	-24.865530	-61.434630	 169.720600	-9.480910	-55.296320	-3.565739	-31.389280	 72.880460	 53.856490	 2.384659	 28.388700	-0.000001	-41.812730	 9.643621	 0.695024	-2.459328	 17.221950	 2.375111	 3.321149	-6.735024	-0.617252	-94.144710	 74.617360	 163.980400	 7.743966	 10.505740	-53.007380	 27.117670	-8.670585	-13.964130	-42.120110	-15.841430	-31.317810	-2.027600	 6.559038	 9.033609	-5.188889	 0.308190	 3.541030	-5.234859	 0.342567	 0.430617	-1.724439	-14.920760	-0.992147	 4.212505	 5.369740	-2.640293	 93.903490	 68.633190	-165.754800	-19.147970	 17.310660	 47.791840	-22.958680	-29.373130	 60.883320	 23.233530	-15.082070	 23.542020	 1.803333	 3.979147	-15.098590	 4.898592	 3.004813	-9.310344	 5.224449	 0.395017	 2.014677
-0.008928	 0.242312	 1.149562	 2.089942	 21.175840	-2.468874	 35.561180	-53.328700	-162.364100	 4.122012	-50.830880	 3.521613	 53.733090	 71.401080	-64.000500	-2.385833	 28.452750	 0.000004	-26.379390	-57.519860	 169.691000	-8.161203	-52.810310	-2.402620	-30.684110	 73.258520	 51.653920	 2.384659	 28.388700	-0.000001	-41.312100	 8.541944	 0.476536	-2.369928	 16.813680	 2.053463	 3.415951	-8.310501	-0.750397	-94.529530	 73.313970	 165.350100	 9.364014	 11.041650	-52.872400	 29.213090	-9.399488	-14.340280	-40.819200	-15.668640	-31.141160	-2.027600	 6.559038	 9.033609	-5.188889	 0.308190	 3.541030	-5.234859	 0.342567	 0.430617	-1.820289	-15.264100	-0.915211	 4.432731	 5.869588	-2.518329	 94.017650	 66.744780	-167.110700	-20.694540	 17.668770	 46.768080	-22.636390	-31.519640	 63.107620	 22.452240	-14.595630	 23.428590	 1.803333	 3.979147	-15.098590	 4.898592	 3.004813	-9.310344	 5.224449	 0.395017	 2.014677
-0.009577	 0.232064	 1.162160	 2.534966	 19.897490	-1.817277	 33.572890	-50.743630	-165.091200	 4.053171	-48.820020	 3.367072	 50.501480	 71.802280	-59.963700	-2.385833	 28.452750	 0.000004	-27.733330	-53.679420	 169.668100	-6.944812	-50.399380	-1.385970	-30.230820	 73.762970	 49.706620	 2.384659	 28.388700	-0.000001	-39.469000	 7.389316	 0.256652	-2.251457	 16.071890	 1.654076	 3.491674	-9.621167	-0.902466	-94.823200	 71.833790	 166.707000	 10.840360	 11.259980	-52.740890	 30.988570	-9.957527	-14.604480	-39.399940	-15.515920	-30.188040	-2.027600	 6.559038	 9.033609	-5.188889	 0.308190	 3.541030	-5.234859	 0.342567	 0.430617	-1.855176	-15.106850	-0.675804	 4.596865	 5.999482	-2.530406	 93.950360	 64.883100	-168.536800	-22.182060	 17.932980	 45.968040	-22.191130	-33.294470	 65.121510	 21.644430	-14.089800	 23.037020	 1.803333	 3.979147	-15.098590	 4.898592	 3.004813	-9.310344	 5.224449	 0.395017	 2.014677
